<svg xmlns="http://www.w3.org/2000/svg" version="1.1" xmlns:xlink="http://www.w3.org/1999/xlink" xmlns:svgjs="http://svgjs.dev/svgjs" viewBox="0 0 800 800" opacity="0.74"><defs><linearGradient x1="50%" y1="0%" x2="50%" y2="100%" id="uundulate-grad"><stop stop-color="#295F4E" stop-opacity="1" offset="45%"></stop><stop stop-color="#6DB193" stop-opacity="1" offset="100%"></stop></linearGradient></defs><g stroke-width="1" stroke="url(#uundulate-grad)" fill="none"><path d="M1423.378369324294 619.6318218462513C1432.2764920718373 844.7551512108391 1345.4552469745968 1048.034649317001 1176.6682614312754 1197.2681694250032C1007.881275887954 1346.501689533005 952.0611199291102 1314.3098044127037 613.2008387163535 1335.9527183646642C274.34055750359676 1357.5956323166247 -218.84063372691503 1550.0000031252794 -449.8610883899569 1301.154156394413C-680.8815430529987 1052.3083096635467 -667.2856601683166 543.2420970684723 -495.6973436662454 141.49265405650294C-324.1090271641742 -260.2567889554666 34.2514525055426 -622.0730730668886 373.76283081998326 -627.2431700630389C713.2742091344237 -632.4132670591889 915.287368388003 -143.0894348394511 1133.9572722430676 116.67618847498488C1352.6271760981326 376.44181178942017 1414.4802465767507 394.5084924816638 1423.378369324294 619.6318218462513C1432.2764920718373 844.7551512108391 1345.4552469745968 1048.034649317001 1176.6682614312754 1197.2681694250032 "></path><path d="M1391.397909723828 612.7683493480652C1400.0179661355105 830.8565746700096 1315.9098849475586 1027.783588460354 1152.397492702466 1172.3535610649806C988.8851004573733 1316.9235336696079 934.8093243722433 1285.7376449593157 606.5384269473852 1306.704217850278C278.2675295225272 1327.6707907412397 -199.50174948203085 1514.062524962124 -423.30281493685266 1272.9931109415966C-647.1038803916745 1031.92369692107 -633.9328688471387 538.7658034695917 -467.7066872357573 149.5710305517464C-301.48050562437584 -239.6237423660989 45.68120905566241 -590.1332675990391 374.5828567977767 -595.1417990640596C703.4845045398911 -600.1503305290801 899.1847525667959 -126.11786806620887 1111.02122192639 125.5300795196506C1322.857691285984 377.1780271055102 1382.7778533121455 394.6801240261211 1391.397909723828 612.7683493480652C1400.0179661355105 830.8565746700096 1315.9098849475586 1027.783588460354 1152.397492702466 1172.3535610649806 "></path><path d="M1359.417236500315 605.904815814723C1367.7592265761368 816.9579370940239 1286.3643092974735 1007.5324665685505 1128.1265103506098 1147.4388916698026C969.8887114037459 1287.345316771054 917.5573151923297 1257.1654244707715 599.8758015553703 1277.4556563007345C282.1942879184112 1297.7458881306984 -180.16307886019376 1478.1249857638118 -396.7447551067954 1244.832004453625C-613.3264313533972 1011.5390231434371 -600.5802911490077 534.289448835555 -439.71624442831603 157.6493460118336C-278.8521977076243 -218.99075681188765 57.11075198273522 -558.1935231663458 375.40266915252323 -563.0404891002365C693.6945863223114 -567.8874550341272 883.0819231225416 -109.1463623281229 1088.0849579866651 134.38390952916052C1293.0879928507884 377.91418138644394 1351.075246424493 394.8516945354222 1359.417236500315 605.904815814723C1367.7592265761368 816.9579370940239 1286.3643092974735 1007.5324665685505 1128.1265103506098 1147.4388916698026 "></path><path d="M1327.4367463822705 599.0413433165368C1335.500670122232 803.0593605531944 1256.8189167528571 987.2814057119035 1103.8557111042223 1122.5242833097805C950.8925054555871 1257.767160907657 900.3054891178849 1228.5932650173836 593.2133592688242 1248.2071557863483C286.1212294197635 1267.821046555313 -160.82422513288782 1442.1875076006563 -370.18651217126944 1216.6709590008086C-579.5487992096512 991.1544104009604 -567.227530345408 529.8131552366744 -411.725618515406 165.72772250707703C-256.22370668540395 -198.35771022252004 68.5404780152769 -526.2537176984963 376.22266461273875 -530.9391181012573C683.9048512102004 -535.6245185040184 866.9792767837566 -92.17479555488092 1065.1488771524093 143.23780057382646C1263.3184775210616 378.6503967025337 1319.3728226423095 395.0233260798793 1327.4367463822705 599.0413433165368C1335.500670122232 803.0593605531944 1256.8189167528571 987.2814057119035 1103.8557111042223 1122.5242833097805 "></path><path d="M1295.4561647114915 592.1779318535071C1303.2420221155921 789.1608450475212 1227.273432655507 967.0304058904128 1079.5848203051005 1097.6097359849146C931.8962079546941 1228.189066079416 883.0535714907057 1200.0211665991524 586.5508254295437 1218.9587163071183C290.0480793683814 1237.8962660150837 -141.48546295831625 1406.2500904726567 -343.62836078847783 1188.5099745831485C-545.7712586186394 970.7698586936403 -533.8748610945427 525.3369226729503 -383.73508415523037 173.80616003747707C-233.59530721591807 -177.72460259799618 79.97011249508421 -494.3138511954905 377.0425685202197 -498.8376860671218C674.1150245453553 -503.3615209387532 850.8765388922368 -75.20316774648245 1042.212704765419 152.09175265364865C1233.5488706386004 379.38667305377976 1287.6703073073913 395.1950186594929 1295.4561647114915 592.1779318535071C1303.2420221155921 789.1608450475212 1227.273432655507 967.0304058904128 1079.5848203051005 1097.6097359849146 "></path><path d="M1263.475583040713 585.3143372850086C1270.9833741089524 775.2621464363795 1197.727948558156 946.7792229634533 1055.3139295059784 1072.6950055545801C912.8999104538011 1198.6107881457067 865.8016538635266 1171.4488850754526 579.888291590263 1189.7100937224195C293.9749293169996 1207.9713023693862 -122.14670078374468 1370.3124902391887 -317.0702094056862 1160.34880706002C-511.9937180276278 950.3851238808513 -500.5221918436773 520.8605070037574 -355.7445497950547 181.88441446240813C-210.96690774643207 -157.09167807894096 91.39974697489151 -462.3741677979534 377.8624724277006 -466.7364371384551C664.3251978805099 -471.0987064789568 834.7738010007172 -58.23172304355285 1019.2765323784281 160.94552162800233C1203.7792637561395 380.1227662995575 1255.9677919724736 395.36652813363776 1263.475583040713 585.3143372850086C1270.9833741089524 775.2621464363795 1197.727948558156 946.7792229634533 1055.3139295059784 1072.6950055545801 "></path><path d="M1231.4949708523561 578.4509258219787C1238.7246955847354 761.3636309307062 1168.1824339432271 926.5282231419626 1031.0430081892785 1047.7804582297142C893.9035824353298 1169.0326933174658 848.5497057187692 1142.8767866572211 573.2257272334045 1160.461654243189C297.9017487480396 1178.0465218291572 -102.80796912675123 1334.3750731111895 -290.51208854047275 1132.1878226423603C-478.2162079541942 930.000572173531 -467.16955311039004 516.3842744400331 -327.7540459524572 189.96285199280806C-188.3385387945243 -136.4585704544172 102.82935093712058 -430.4343012949476 378.6823458176036 -434.6350051043196C654.5353406980864 -438.8357089136916 818.6710325916197 -41.260095235154495 996.3403294738598 169.79947370782452C1174.0096263561002 380.85904265080353 1224.2652461199775 395.53822071325135 1231.4949708523561 578.4509258219787C1238.7246955847354 761.3636309307062 1168.1824339432271 926.5282231419626 1031.0430081892785 1047.7804582297142 "></path><path d="M1199.5143891815774 571.5874228062144C1206.4660475780959 747.4650238722986 1138.6369498458766 906.2771317677375 1006.7721173901566 1022.8658193521142C874.9072849344366 1139.4545069364906 831.2977880915898 1114.3045966862553 566.5631933941238 1131.2131232112247C301.82859869665754 1148.1216497361936 -83.46920695217966 1298.4375644304555 -263.95393715768114 1104.0267466719658C-444.43866736318256 909.6159289134764 -433.8168838595247 511.90795032357437 -299.7635115922816 198.04119797047338C-165.71013932503843 -115.82555438262762 114.25898541692777 -398.4945263446762 379.50224972508454 -402.5336646229185C644.7455140332411 -406.5728029011608 802.5682947000998 -24.288558979490517 973.4041570868694 178.65333423491234C1144.240019473639 381.5952274493152 1192.5627307850593 395.70982174013034 1199.5143891815774 571.5874228062144C1206.4660475780959 747.4650238722986 1138.6369498458766 906.2771317677375 1006.7721173901566 1022.8658193521142 "></path><path d="M1167.533838028377 564.7238892728724C1174.2074300890345 733.5663862963129 1109.091496266104 886.0260098759343 982.5012571086129 997.9511499569358C855.9110179511217 1109.8762900379372 814.0459009819888 1085.7323761977113 559.9006900724212 1101.9645616616817C305.7554791628538 1118.1967471256523 -64.13041426002997 1262.5000252321433 -237.39575525731135 1075.8656401839935C-410.66109625459274 889.2312551358436 -400.4641840910812 507.43159568953774 -271.7729467145278 206.1195134305607C-143.08170933797442 -95.19256882841637 125.6886504143132 -366.5547819119829 380.3221841501436 -370.4323546590955C634.9557178859741 -374.3099274062081 786.4655873261584 -7.317053241404665 950.4680152174572 187.50716424442214C1114.4704431087557 382.3313817302487 1160.8602459677195 395.8813922494314 1167.533838028377 564.7238892728724C1174.2074300890345 733.5663862963129 1109.091496266104 886.0260098759343 982.5012571086129 997.9511499569358 "></path><path d="M1135.5532563575982 557.8603862571081C1141.948782082395 719.6677792379053 1079.5460121687534 865.7749185017092 958.230366309491 973.0365110793355C836.9147204502287 1080.298103656962 796.7939833548096 1057.1601862267453 553.2381562331407 1072.7160306297171C309.68232911147186 1088.2718750326887 -44.791652085458395 1226.5625165514093 -210.83760387451974 1047.7045642135993C-376.8835556635811 868.8466118757888 -367.1115148402158 502.95527157307924 -243.78241235435218 214.19785940822612C-120.45330986848853 -74.55955275662689 137.1182848941205 -334.61500696171146 381.14208805762473 -338.3310141776944C625.1658912211287 -342.0470213936773 770.3628494346387 9.654483014259313 927.5318428304668 196.36102477150996C1084.7008362262945 383.0675665287606 1129.1577306328013 396.05299327631064 1135.5532563575982 557.8603862571081C1141.948782082395 719.6677792379053 1079.5460121687534 865.7749185017092 958.230366309491 973.0365110793355 "></path><path d="M1103.5726746868195 550.9968832413438C1109.6901340757554 705.7691721794977 1050.0005280714026 845.5238271274839 933.9594755103692 948.1218722017354C817.9184229493355 1050.7199172759867 779.5420657276304 1028.5879962557794 546.5756223938602 1043.4674995977523C313.60917906009 1058.3470029397256 -25.452889910886825 1190.6250078706755 -184.27945249172814 1019.5434882432048C-343.1060150725694 848.4619686157341 -333.75884558935047 498.4789474566205 -215.7918779941765 222.27620538589156C-97.82491039900253 -53.9265366848374 148.5479193739277 -302.6752320114401 381.96199196510565 -306.2296736962933C615.3760645562836 -309.7841153811465 754.2601115431191 26.62601926992329 904.5956704434764 205.2148852985979C1054.9312293438334 383.8037513272725 1097.4552152978836 396.22459430318986 1103.5726746868195 550.9968832413438C1109.6901340757554 705.7691721794977 1050.0005280714026 845.5238271274839 933.9594755103692 948.1218722017354 "></path><path d="M1071.5920930160407 544.1333497080013C1077.431486069116 691.8705346035119 1020.4550439740519 825.2727052356806 909.6885847112471 923.207202806557C798.9221254484423 1021.1417003774334 762.2901481004512 1000.0157757672355 539.9130885545796 1014.2189380482096C317.53602900870806 1028.4221003291839 -6.114127736315368 1154.6874686723636 -157.72130110893647 991.3823817552325C-309.3284744815577 828.0772948381014 -300.4061763384851 494.00259282258367 -187.8013436340009 230.35452084597887C-75.19651092951665 -33.29355113062604 159.9775538537349 -270.73548757874676 382.7818958725866 -274.1283637324703C605.5862378914383 -277.5212398861938 738.1573736515995 43.59752500800914 881.659498056486 214.06871530810758C1025.1616224613724 384.539905608206 1065.7526999629656 396.3961648124907 1071.5920930160407 544.1333497080013C1077.431486069116 691.8705346035119 1020.4550439740519 825.2727052356806 909.6885847112471 923.207202806557 "></path><path d="M1039.611511345262 537.2698772098156C1045.1728380624766 677.9719580626827 990.9095598767012 805.0216443790337 885.4176939121253 898.2925944465351C779.9258279475494 991.5635445140365 745.038230473272 971.443616313848 533.2505547152991 984.9704375338235C321.4628789573261 998.4972587537989 13.224634438256317 1118.7499905092081 -131.16314972614487 963.2213363024164C-275.55093389054605 807.6926820956248 -267.0535070876198 489.5262992237035 -159.81080927382527 238.43289734122254C-52.568111460030764 -12.660504541258433 171.4071883335423 -238.7956821108972 383.6017997800676 -242.02699273349106C595.7964112265931 -245.25830335608487 722.0546357600799 60.56909178125136 858.7233256694956 222.92260635277376C995.392015578911 385.2761209242959 1034.0501846280474 396.5677963569482 1039.611511345262 537.2698772098156C1045.1728380624766 677.9719580626827 990.9095598767012 805.0216443790337 885.4176939121253 898.2925944465351 "></path><path d="M1007.6309296744835 530.4064047116294C1012.914190055837 664.0733815218532 961.3640757793505 784.7705835223867 861.1468031130034 873.3779860865129C760.9295304466564 961.9853886506394 727.7863128460926 942.8714568604603 526.5880208760184 955.7219370194368C325.38972890594414 968.5724171784136 32.56339661282777 1082.8125123460525 -104.60499834335326 935.0602908496003C-241.77339329953435 787.3080693531483 -233.70083783675437 485.0500056248229 -131.8202749136496 246.511273836466C-29.939711990544765 7.97254204810929 182.8368228133495 -206.85587664304768 384.42170368754864 -209.92562173451182C586.0065845617478 -212.99536682597596 705.9518978685603 77.54065855449346 835.7871532825052 231.7764973974397C965.6224086964498 386.01233624038593 1002.3476692931295 396.7394279014054 1007.6309296744835 530.4064047116294C1012.914190055837 664.0733815218532 961.3640757793505 784.7705835223867 861.1468031130034 873.3779860865129 "></path><path d="M975.6503480037045 523.542871178287C980.6555420491977 650.1747439458675 931.8185916819998 764.5194616305835 836.8759123138816 848.4633166913345C741.9332329457629 932.4071717520858 710.5343952189135 914.2992363719163 519.9254870367379 926.4733754698941C329.3165788545623 938.6475145678721 51.90215878739946 1046.8749731477403 -78.04684696056165 906.8991843616279C-207.9958527085227 766.9233955755153 -200.34816858588903 480.5736509907862 -103.82974055347398 254.5895892965534C-7.311312521058937 28.605527602320535 194.2664572931568 -174.91613221035436 385.24160759502956 -177.82431177068884C576.2167578969024 -180.73249133102325 689.8491599770407 94.51216429257931 812.8509808955146 240.6303274069494C935.8528018139889 386.74849052131947 970.6451539582115 396.9109984107065 975.6503480037045 523.542871178287C980.6555420491977 650.1747439458675 931.8185916819998 764.5194616305835 836.8759123138816 848.4633166913345 "></path><path d="M943.6697663329257 516.6794291976789C948.3968940425582 636.2761979226161 902.2731075846491 744.2684312915146 812.6050215147598 823.5487388488907C722.93693544487 902.8290464062668 693.2824775917343 885.7271074361067 513.2629531974574 897.2249054730858C333.24342880318034 908.722703510065 71.24092096197091 1010.9375255021628 -51.488695577770045 878.73816942639C-174.218312117511 746.5388133506171 -166.99549933502368 476.0973879094838 -75.83920619329831 262.667996309375C15.317086948427004 49.23860470926627 205.6960917729641 -142.97629622492667 386.0615115025106 -145.72291025413148C566.4269312320571 -148.46952428333623 673.7464220855211 111.48376158339966 789.9148085085244 249.48424896919357C906.0831949315277 387.4847363549875 938.9426386232935 397.08266047274185 943.6697663329257 516.6794291976789C948.3968940425582 636.2761979226161 902.2731075846491 744.2684312915146 812.6050215147598 823.5487388488907 "></path><path d="M911.689184662147 509.815987217071C916.1382460359187 622.377651899365 872.7276234872984 724.0174009524458 788.3341307156377 798.6341610064469C703.940637943977 873.2509210604478 676.0305599645551 857.1549785002971 506.60041935817674 867.9764354762774C337.1702787517984 878.7978924522577 90.57968313654249 975.000077856585 -24.930544194978438 850.5771544911518C-140.44077152649936 726.1542311257185 -133.64283008415828 471.62112482818145 -47.848671833122694 270.7464033221968C37.94548641791289 69.871681816212 217.1257262527713 -111.03646023949904 386.88141540999163 -113.62150873757406C556.6371045672118 -116.20655723564914 657.6436841940015 128.45535887421977 766.9786361215338 258.33817053143775C876.3135880490663 388.2209821886554 907.2401232883753 397.2543225347772 911.689184662147 509.815987217071C916.1382460359187 622.377651899365 872.7276234872984 724.0174009524458 788.3341307156377 798.6341610064469 "></path><path d="M879.7086029913685 502.9523926485724C883.8795980292794 608.4789532882228 843.1821393899477 703.7662180254861 764.0632399165158 773.7194305761122C684.944340443084 843.672643126738 658.7786423373759 828.5826969765967 499.9378855188961 838.7278128915782C341.09712870041653 848.8729288065601 109.91844531111406 939.0624776231168 1.6276071878132257 822.4159869680234C-106.66323093548766 705.7694963129295 -100.29016083329293 467.14470915898846 -19.858137472947078 278.82465774712773C60.573885887398774 90.50460633526711 228.5553607325785 -79.09677684196197 387.70131931747255 -81.52025980890733C546.8472779023666 -83.94374277585274 641.5409463024816 145.42680357714949 744.0424637345436 267.1919395057912C846.5439811666051 388.9570754344329 875.5376079534574 397.42583200892204 879.7086029913685 502.9523926485724C883.8795980292794 608.4789532882228 843.1821393899477 703.7662180254861 764.0632399165158 773.7194305761122 "></path><path d="M847.7280823557458 496.08895066796447C851.6210110577961 594.5804072649715 813.6367163277534 683.5151876864174 739.7924101525502 748.8048527336682C665.948103977347 814.094517780919 641.5267857453528 800.0105680407871 493.27541271477185 809.4793428947701C345.0240396841907 818.9481177487528 129.25726852084188 903.1250299775393 28.185819605761083 794.2549720327852C-72.88562930931971 685.3849140880311 -66.93743054727133 462.6684460776861 8.132457922384845 286.90306475994953C83.20234639204097 111.13768344221285 239.98505624754216 -47.15694085653428 388.52128426010984 -49.41885829234997C537.0575122726776 -51.680775728165656 625.4382694461184 162.3984008679697 721.1063523827095 276.04586106803526C816.7744353193002 389.6933212681008 843.8351536536957 397.5974940709574 847.7280823557458 496.08895066796447C851.6210110577961 594.5804072649715 813.6367163277534 683.5151876864174 739.7924101525502 748.8048527336682 "></path><path d="M815.7475006849672 489.22541713462215C819.3623630511568 580.6817696889859 784.0912322304025 663.2640657946141 715.5215193534282 723.8901833384898C646.951806476454 784.5163008823656 624.2748681181737 771.4383475522434 486.61287887549133 780.2307813452273C348.95088963280887 789.0232151382115 148.59603069541345 867.1874907792276 54.74397098855269 766.0938655448131C-39.10808871830807 665.0002403103983 -33.584761296405986 458.19209144364936 36.12299228256046 294.98138022003684C105.8307458615269 131.7706689964242 251.41469072734935 -15.217196423841017 389.3411881675909 -17.317548328526982C527.2676856078323 -19.417900233213004 609.3355315545989 179.36990660605557 698.1701799957191 284.89969107754507C787.004828436839 390.4294755490346 812.1326383187779 397.7690645802585 815.7475006849672 489.22541713462215C819.3623630511568 580.6817696889859 784.0912322304025 663.2640657946141 715.5215193534282 723.8901833384898 "></path><path d="M783.7669190141885 482.36191411885807C787.1037150445172 566.7831626305783 754.545748133052 643.012974420389 691.2506285543064 698.9755444608898C627.9555089755609 754.9381145013904 607.0229504909944 742.8661575812775 479.9503450362106 750.9822503132627C352.8777395814269 759.0983430452479 167.93479286998502 831.2499820984935 81.30212237134435 737.9327895744186C-5.3305481272963675 644.6155970503437 -0.2320920455405826 453.71576732719075 64.11352664273608 303.0597261977023C128.4591453310128 152.4036850682137 262.84432520715654 16.722578526430425 390.1610920750718 14.783792152874128C517.477858942987 12.84500577931783 593.2327936630792 196.34144286171954 675.2340076087286 293.753551604633C757.2352215543779 391.16566034754624 780.4301229838597 397.9406656071376 783.7669190141885 482.36191411885807C787.1037150445172 566.7831626305783 754.545748133052 643.012974420389 691.2506285543064 698.9755444608898 "></path><path d="M751.7863373434097 475.49847213825C754.8450670378777 552.884616607327 725.0002640357013 622.76194408132 666.9797377551846 674.0609666184458C608.9592114746678 725.3599891555715 589.7710328638152 714.2940286454678 473.2878111969301 721.7337803164543C356.80458953004495 729.173531987441 187.2735550445566 795.3125344529158 107.86027375413596 709.7717746391805C28.446992463715333 624.2310148254452 33.120577205324764 449.2395042458884 92.10406100291175 311.13813321052385C151.08754480049873 173.03676217515942 274.27395968696385 48.66241451185812 390.9809959825528 46.88519366943149C507.6880322781418 45.10797282700486 577.1300557715596 213.31304015253977 652.2978352217382 302.60747316687707C727.4656146719167 391.9019061812144 748.7276076489418 398.11232766917306 751.7863373434097 475.49847213825C754.8450670378777 552.884616607327 725.0002640357013 622.76194408132 666.9797377551846 674.0609666184458 "></path><path d="M719.805755672631 468.6349386049078C722.5864190312383 538.9859790313413 695.4547799383506 602.5108221895168 642.7088469560626 649.1462972232675C589.9629139737747 695.7817722570182 572.519115236636 685.721808156924 466.62527735764957 692.4852187669118C360.7314394786631 699.2486293768994 206.61231721912816 759.3749952546041 134.41842513692757 681.6106681512082C62.224533054726976 603.8463410478124 66.47324645619011 444.76314961185176 120.09459536308736 319.21644867061127C173.71594426998462 193.66974772937078 285.70359416677115 80.60215894455138 391.80089989003386 78.98650363325447C497.89820561329657 77.37084832195757 561.02731788004 230.28454589062568 629.3616628347478 311.4613031763869C697.6960077894555 392.6380604621479 717.0250923140237 398.28389817847415 719.805755672631 468.6349386049078C722.5864190312383 538.9859790313413 695.4547799383506 602.5108221895168 642.7088469560626 649.1462972232675 "></path><path d="M687.8251740018522 461.7714661067216C690.3277710245989 525.0874024905119 665.9092958409999 582.2597613328699 618.4379561569408 624.2316888632454C570.9666164728815 666.203616393621 555.2671976094567 657.1496487035363 459.96274351836894 663.2367182525252C364.65828942728115 669.3237878015142 225.95107939369973 723.4375170914483 160.97657651971917 653.4496226983921C96.00207364573868 583.4617283053358 99.82591570705546 440.28685601297116 148.08512972326298 327.29482516585483C196.34434373947056 214.3027943187384 297.13322864657835 112.54196441240094 392.6208037975148 111.0878746322337C488.1083789484512 109.63378485206647 544.9245799885203 247.25611266386778 606.4254904477573 320.3151942210528C667.9264009069944 393.3742757782379 685.3225769791057 398.4555297229314 687.8251740018522 461.7714661067216C690.3277710245989 525.0874024905119 665.9092958409999 582.2597613328699 618.4379561569408 624.2316888632454 "></path><path d="M655.8445923310735 454.9079325733792C658.0691230179593 511.18876491452625 636.3638117436492 562.0086394410666 594.1670653578188 599.3170194680672C551.9703189719885 636.6253994950677 538.0152799822775 628.5774282149923 453.3002096790883 633.9881567029825C368.5851393758992 639.3988851909726 245.28984156827124 687.4999778931362 187.53472790251078 625.2885162104196C129.77961423675032 563.077054527703 133.17858495792086 435.81050137893453 176.07566408343865 335.37314062594214C218.97274320895644 234.93577987294975 308.56286312638565 144.48170884509426 393.4407077049958 143.1891845960567C478.31855228360587 141.89666034701918 528.8218420970007 264.22761840195363 583.4893180607669 329.1690242305626C638.1567940245332 394.11043005917145 653.6200616441877 398.62710023223235 655.8445923310735 454.9079325733792C658.0691230179593 511.18876491452625 636.3638117436492 562.0086394410666 594.1670653578188 599.3170194680672 "></path><path d="M623.8640411778729 448.04446007519323C625.810505528898 497.29018837369676 606.8183581638767 541.7575785844197 569.8962050762751 574.402411108045C532.9740519886735 607.0472436316704 520.7633928726764 600.0052687616045 446.6377063573859 604.739656188596C372.51201984209536 609.4740436155873 264.62863426042094 651.5624997299806 214.0929098028805 597.1274707576035C163.55718534534014 542.6924417852265 166.53128472636433 431.33420778005393 204.0662289611924 343.4515171211857C241.60117319602045 255.56882646231736 319.9925281237711 176.42151431294377 394.260642130055 175.29055559503593C468.52875613633887 174.15959687712808 512.7191347230591 281.1991851751958 560.5531761913547 338.02291527522857C608.3872176596501 394.84664537526135 621.9175768268478 398.7987317766897 623.8640411778729 448.04446007519323C625.810505528898 497.29018837369676 606.8183581638767 541.7575785844197 569.8962050762751 574.402411108045 "></path><path d="M591.8834595070942 441.18095705942903C593.5518575222586 483.39158131528916 577.272874066526 521.5064872101946 545.6253142771532 549.4877722304449C513.9777544877804 577.4690572506952 503.5114752454972 571.4330787906388 439.9751725181053 575.4911251566314C376.43886979071345 579.549171522624 283.9673964349925 615.6249910492468 240.65106118567218 568.9663947872093C197.3347259363518 522.3077985251718 199.88395397722968 426.85788366359543 232.05676332136807 351.52986309885114C264.2295726655064 276.20184253410685 331.4221626035783 208.3612892632152 395.0805460375359 207.39189607643704C458.7389294714935 206.42250288965892 496.61639683153953 298.17072143085977 537.6170038043642 346.8767758023165C578.6176107771889 395.5828301737731 590.2150614919299 398.9703328035688 591.8834595070942 441.18095705942903C593.5518575222586 483.39158131528916 577.272874066526 521.5064872101946 545.6253142771532 549.4877722304449 "></path><path d="M559.9028778363155 434.31748456124296C561.2932095156191 469.4930047744597 547.7273899691753 501.2554263535475 521.3544234780313 524.5731638704228C494.98145698688734 547.8909013872982 486.259557618318 542.8609193372511 433.3126386788248 546.2426246422449C380.36571973933155 549.6243299472387 303.3061586095641 579.6875128860911 267.2092125684638 540.8053493343932C231.1122665273635 501.9231857826953 233.23662322809508 422.38159006471494 260.0472976815437 359.6082395940947C286.85797213499234 296.83488912347445 342.8517970833856 240.30109473106478 395.90044994501693 239.49326707541633C448.9491028066483 238.68543941976782 480.5136589400199 315.1422882041019 514.6808314173738 355.7306668469825C548.8480038947278 396.319045489863 558.5125461570119 399.14196434802614 559.9028778363155 434.31748456124296C561.2932095156191 469.4930047744597 547.7273899691753 501.2554263535475 521.3544234780313 524.5731638704228 "></path><path d="M527.9223266831149 427.4539662866896C529.0345920265578 455.5943824572631 518.1819363894027 481.0043197205333 497.0835631964876 499.6585097340336C475.98519000357237 518.3126997475338 469.00767050871696 514.2887141074962 426.6501353571223 516.9940783514912C384.2926002055277 519.6994425954863 322.6449513017138 543.7499889465681 293.7673944688335 512.6442581052098C264.8898376359533 481.5385272638515 266.58932299653856 417.90525068946727 288.0378625592974 367.68657031297107C309.48640212205635 317.4678899364749 354.28146208077095 272.2408544225471 396.72038437007603 271.5945922980284C439.15930665938106 270.9483301735096 464.41095156607844 332.11380920097685 491.74468954796157 364.5845121152813C519.0784275298447 397.0552150295857 526.810061339672 399.3135501161162 527.9223266831149 427.4539662866896C529.0345920265578 455.5943824572631 518.1819363894027 481.0043197205333 497.0835631964876 499.6585097340336 "></path><path d="M495.9417144947581 420.5904937885036C496.77591350234025 441.69580591643364 488.636421774474 460.75325886388634 472.8126418797875 474.74390137401156C456.98886198510115 488.73454388413666 451.75572236395953 485.71655465410845 419.9875710002636 487.74557783710475C388.21941963656764 489.77460102010104 341.98368295870716 507.81251078341245 320.325515334047 484.4832126523937C298.66734770938683 461.153914521375 299.9419617298258 413.4289570905868 316.02836640189497 375.76494680821463C332.11477107396416 338.1009365258425 365.7110660430001 304.18065989039667 397.5402577599789 303.6959632970076C429.3694494769577 303.2112667036185 448.3081831569807 349.08537597421895 468.80848664339305 373.4384031599473C489.3087901298054 397.7914303456756 495.1075154871759 399.48518166057346 495.9417144947581 420.5904937885036C496.77591350234025 441.69580591643364 488.636421774474 460.75325886388634 472.8126418797875 474.74390137401156 "></path><path d="M463.96116334155744 413.72697551395026C464.5172960132789 427.79718359923703 459.09096819470136 440.5021522308721 448.5417815982438 449.82924723762227C437.9925950017862 459.15634224437235 434.5038352543585 457.14434942435355 413.32506767856114 458.4970315463511C392.14630010276386 459.8497136683486 361.32247565085686 471.87498684388953 346.8836972344168 456.3221214232104C332.44491881797666 440.7692560025312 333.29466149826925 408.9526177153391 344.0189312796487 383.843277527091C354.7432010610282 358.7339373388429 377.1407310403855 336.12041958187905 398.360192185038 335.79728851961966C419.57965332969053 335.47415745736026 432.2054757830392 366.05689697109386 445.8723447739808 382.2922484282461C459.53921376492235 398.52759988539833 463.405030669836 399.65676742866356 463.96116334155744 413.72697551395026C464.5172960132789 427.79718359923703 459.09096819470136 440.5021522308721 448.5417815982438 449.82924723762227 "></path><path d="M431.9805664119897 406.8635030157642C432.25863274785036 413.89860705840755 429.54546883856165 420.2510913742251 424.27087554033284 424.91463887760017C418.99628224210403 429.57818638097524 417.2519023683902 428.57218997096584 406.6625185804915 429.2485310319646C396.0731347925929 429.92487209296337 380.66122256663937 435.9375086807338 373.44183335841933 428.1610759703943C366.22244415019924 420.3846432600547 366.6473154903456 404.4763241164586 372.0094503810353 391.92165402233456C377.37158527172505 379.3669839282105 388.5703502614037 368.06022504972856 399.18008083372996 367.8986595185989C409.78981140605623 367.73709398746917 416.10272263273055 383.028463744336 422.93615712820133 391.1461394729121C429.7695916236721 399.2638152014882 431.70250007612896 399.82839897312084 431.9805664119897 406.8635030157642C432.25863274785036 413.89860705840755 429.54546883856165 420.2510913742251 424.27087554033284 424.91463887760017 "></path></g></svg>